<?xml version="1.0" encoding="UTF-8" standalone="no"?>
<svg width="84px" height="84px" viewBox="0 0 84 84" version="1.1" xmlns="http://www.w3.org/2000/svg" xmlns:xlink="http://www.w3.org/1999/xlink" xmlns:sketch="http://www.bohemiancoding.com/sketch/ns">
    <!-- Generator: Sketch 3.4.2 (15857) - http://www.bohemiancoding.com/sketch -->
    <title>Oval 66 + Fill 1 Copy</title>
    <desc>Created with Sketch.</desc>
    <defs></defs>
    <g id="Page-1" stroke="none" stroke-width="1" fill="none" fill-rule="evenodd" sketch:type="MSPage">
        <g id="X--Preview" sketch:type="MSArtboardGroup" transform="translate(-657.000000, -654.000000)">
            <g id="Oval-66-+-Fill-1-Copy" sketch:type="MSLayerGroup" transform="translate(699.000000, 696.000000) scale(-1, 1) translate(-699.000000, -696.000000) translate(657.000000, 654.000000)">
                <circle id="Oval-66" fill="#455A64" sketch:type="MSShapeGroup" cx="42" cy="42" r="42"></circle>
                <path d="M48.9869279,55.0842609 L36.5024062,42.8270435 L48.768841,30.7839478 C50.0598265,29.5158087 50.0598265,27.4606783 48.768841,26.1928522 L48.5223772,25.9508696 C47.2310728,24.6830435 45.1372468,24.6830435 43.8462612,25.9508696 L29.2554786,40.2763652 C29.2510149,40.2807478 29.2459134,40.2845043 29.2414497,40.288887 L28.994667,40.5308696 C27.7036815,41.7986957 27.6641453,43.8153217 28.906667,45.0355652 L44.0643482,59.9173391 C45.3068699,61.1375826 47.3611598,61.0990783 48.6521453,59.8309391 L48.8989279,59.5889565 C50.1899134,58.3214435 50.2294497,56.3045043 48.9869279,55.0842609" id="Fill-1" fill="#FEFEFE" sketch:type="MSShapeGroup"></path>
            </g>
        </g>
    </g>
</svg>