<?xml version="1.0" encoding="utf-8"?>
<!-- Generator: Adobe Illustrator 17.0.0, SVG Export Plug-In . SVG Version: 6.00 Build 0)  -->
<!DOCTYPE svg PUBLIC "-//W3C//DTD SVG 1.1//EN" "http://www.w3.org/Graphics/SVG/1.1/DTD/svg11.dtd">
<svg version="1.1" id="Layer_1" xmlns:sketch="http://www.bohemiancoding.com/sketch/ns"
	 xmlns="http://www.w3.org/2000/svg" xmlns:xlink="http://www.w3.org/1999/xlink" x="0px" y="0px" width="63px" height="63px"
	 viewBox="0 0 63 63" style="enable-background:new 0 0 63 63;" xml:space="preserve">
<style type="text/css">
	.st0{fill:#BADBAC;}
</style>
<g>
	<g>
		<path class="st0" d="M31.5,0C14.1,0,0,14.1,0,31.5S14.1,63,31.5,63S63,48.9,63,31.5S48.9,0,31.5,0z M47.6,27.1L31.9,43
			c-1.3,1.3-3.4,1.3-4.7-0.1l-0.3-0.3c0,0,0,0,0,0L17,32.6c-1.3-1.4-1.3-3.6,0-4.9l0.3-0.3c1.3-1.4,3.5-1.4,4.8,0l7.5,7.6L42.5,22
			c1.3-1.3,3.4-1.3,4.7,0.1l0.3,0.3C48.8,23.7,48.9,25.8,47.6,27.1z"/>
	</g>
</g>
</svg>
