<?xml version="1.0" encoding="utf-8"?>
<!-- Generator: Adobe Illustrator 17.0.0, SVG Export Plug-In . SVG Version: 6.00 Build 0)  -->
<!DOCTYPE svg PUBLIC "-//W3C//DTD SVG 1.1//EN" "http://www.w3.org/Graphics/SVG/1.1/DTD/svg11.dtd">
<svg version="1.1" id="Layer_1" xmlns="http://www.w3.org/2000/svg" xmlns:xlink="http://www.w3.org/1999/xlink" x="0px" y="0px"
	 width="42px" height="42px" viewBox="0 0 72 72" style="enable-background:new 0 0 72 72;" xml:space="preserve">
<style type="text/css">
	.st0{fill:#5B8F7D;}
	.st1{fill:#FFFFFF;}
	.st2{fill:none;stroke:#FFFFFF;stroke-linecap:round;stroke-linejoin:round;stroke-dasharray:5.8378,5.8378;}
</style>
<circle class="st0" cx="36.1" cy="36" r="35.1"/>
<g>
	<path class="st1" d="M32.4,46.1c-5.7,0-9-5.7-9-14.4c0-9.2,5.9-20.5,15.1-20.5c3.3,0,5.9,2.2,5.9,5.7c0,5-5.6,9.4-9.6,9.4
		c-1.1,0-2-0.7-2-2.2c0-0.6,0.2-1.7,0.5-1.7c0.3,0,0.4,0.5,1.8,0.5c2.4,0,5.7-2.7,5.7-5.7c0-1.1-0.7-2.6-2.8-2.6
		c-5.8,0-10.6,9-10.6,17.1c0,6.7,2.3,10.8,5.2,10.8c4.7,0,7.1-6.4,7.1-10.2c0-0.5-0.1-1.2-0.1-1.5c0-0.9,0.7-0.9,1.5-0.9
		c0.8,0,2.4,0.7,2.4,1.8c-0.2,2.5-0.3,4.7-0.3,7c0,2.2,0,4.4,0,7.3c0.9-0.1,1.7-0.2,2.5-0.2c2.2-0.1,1,3.6-0.6,3.7
		c-0.7,0-1.3,0-1.9,0.1c-0.2,5.2-1.3,11.3-6.8,11.3c-3.1,0-5.2-2.4-5.2-5.5c0-4.7,4.2-7.2,8.5-8.5v-0.5c0-2-0.1-3.5-0.1-4.6
		C37.6,44.5,35.2,46.1,32.4,46.1z M39.5,50.1c-3.1,1-4.8,2.7-4.8,5c0,1.4,0.7,2,1.7,2C38.5,57.1,39.3,53.8,39.5,50.1z"/>
</g>
<g>
	<circle class="st2" cx="36.1" cy="36" r="31.6"/>
</g>
</svg>
