<?xml version="1.0" encoding="UTF-8" standalone="no"?>
<svg width="23px" height="23px" viewBox="0 0 23 23" version="1.1" xmlns="http://www.w3.org/2000/svg" xmlns:xlink="http://www.w3.org/1999/xlink" xmlns:sketch="http://www.bohemiancoding.com/sketch/ns">
    <!-- Generator: Sketch 3.4.3 (16044) - http://www.bohemiancoding.com/sketch -->
    <title>? + Oval 401</title>
    <desc>Created with Sketch.</desc>
    <defs></defs>
    <g id="Page-1" stroke="none" stroke-width="1" fill="none" fill-rule="evenodd" sketch:type="MSPage">
        <g id="01-Landing" sketch:type="MSArtboardGroup" transform="translate(-1259.000000, -14.000000)">
            <g id="?-+-Oval-401" sketch:type="MSLayerGroup" transform="translate(1260.000000, 15.300000)">
                <path d="M10.0457027,12.7723947 C10.396151,12.7723947 10.6399412,12.4981308 10.7008887,12.1629193 L10.7618362,11.4620226 C12.4531304,11.1725218 13.8396869,10.3040194 13.8396869,8.38417197 L13.8396869,8.3536982 C13.8396869,6.44908766 12.3921829,5.26061068 10.2590191,5.26061068 C8.8572257,5.26061068 7.83635444,5.76342786 7.02879957,6.52527208 C6.81548319,6.70811469 6.72406188,6.95190484 6.72406188,7.18045811 C6.72406188,7.63756464 7.10498399,8.01848675 7.57732741,8.01848675 C7.79064379,8.01848675 7.98872329,7.92706544 8.14109213,7.80517037 C8.75056751,7.25664253 9.40575353,6.96714173 10.2133084,6.96714173 C11.3103641,6.96714173 11.9655501,7.56138022 11.9655501,8.41464574 L11.9655501,8.44511951 C11.9655501,9.40504322 11.1732321,9.95357106 9.74096499,10.090703 C9.32956911,10.1364137 9.08577896,10.4411514 9.1467265,10.8525472 L9.29909534,12.1629193 C9.344806,12.5133676 9.60383303,12.7723947 9.95428137,12.7723947 L10.0457027,12.7723947 Z M8.87246258,14.9360323 L8.87246258,15.0884011 C8.87246258,15.6826396 9.32956911,16.1397461 9.95428137,16.1397461 C10.5789936,16.1397461 11.0361002,15.6826396 11.0361002,15.0884011 L11.0361002,14.9360323 C11.0361002,14.3417938 10.5789936,13.8846872 9.95428137,13.8846872 C9.32956911,13.8846872 8.87246258,14.3417938 8.87246258,14.9360323 L8.87246258,14.9360323 Z" id="?" fill="#0B9384" sketch:type="MSShapeGroup"></path>
                <circle id="Oval-401" stroke="#0B9384" stroke-width="0.9" sketch:type="MSShapeGroup" cx="10.35" cy="10.35" r="10.35"></circle>
            </g>
        </g>
    </g>
</svg>