<?xml version="1.0" encoding="utf-8"?>
<!-- Generator: Adobe Illustrator 19.1.0, SVG Export Plug-In . SVG Version: 6.00 Build 0)  -->
<svg version="1.1" id="Layer_1" xmlns="http://www.w3.org/2000/svg" xmlns:xlink="http://www.w3.org/1999/xlink" x="0px" y="0px"
	 viewBox="0 0 600 600" style="enable-background:new 0 0 600 600;" xml:space="preserve">
<style type="text/css">
	.st0{fill:#607E89;}
</style>
<g>
	<path class="st0" d="M201.4,368c0.1-7.4,0.4-16.8-1.9-23.9c-1.2-3.7-6.3-3.7-7.5,0c-1.7,5.2-0.4,10.5,0,15.9
		c0.5,7.4,0.1,14.7-0.1,22.1c-0.4,10.9,0.3,21.9,0.6,32.9c0.6,19.9-0.5,41.2,2.6,60.8c0.2,1.2,1.5,2.5,2.7,2.7
		c0.3,0.1,0.6,0.1,0.9,0.2c0.9,0.2,1.8,0.1,2.5-0.2c1.4-0.5,2.5-1.6,2.5-3.5c0-24.8-1.8-49.7-1.7-74.6
		C202.1,389.6,201.4,378.9,201.4,368z"/>
	<path class="st0" d="M414.8,252.8c-2.6-9.8-9-17.2-11.8-26.8c-1.4-4.8-1.9-9.7-2.1-14.7c4.4-2.2,7.7-5.6,7-11.6
		c-0.6-4.6-3.4-7.6-7.1-9.3c-0.2-7.6-0.1-15.1,0.1-22.6c0.8-0.9,1.1-2.2,0.8-3.4c2-3.3,2-6.9-0.7-9.1c0-0.8,0-1.5,0-2.3
		c-0.1-8.6-1.4-12.9-9.5-16.6c-20.7-9.5-49-8-71.1-8.4c-27.5-0.4-55-0.1-82.4,2.7c-11.1,1.1-40.6,1.2-46.1,13.3
		c-0.3,0.6-0.4,1.2-0.5,1.8c-1.6,5-1.9,11.1-1.7,17.1c-4.8,2.3-7,8.3-3.4,13c1.2,1.5,2.7,2.6,4.5,3.5c0,0.1,0,0.2,0,0.3
		c0.1,2.5,0.1,4.9,0.1,7.4c-0.1,0-0.1,0.1-0.2,0.1c-7,3.2-12.7,9.6-9.6,18c1.5,3.9,4.6,6.3,8.4,7.8c0,0.3,0,0.6-0.1,0.8
		c-0.8,11.8-7.7,19.6-11.5,30.2c-7.5,20.8-8.1,43.8-8.1,65.7c-0.1,25.5,0,51,0.1,76.5c0.1,44.9-4.6,93.3,6.7,137.1
		c3.9,15.1,10.7,31,23.7,40.6c15.3,11.3,35.9,15.5,54.4,17.5c22.2,2.4,45.5,2.7,67.8,2.1c19-0.5,40.6-2.4,57.2-12.7
		c14.9-9.2,22.5-25,28-41c7.4-21.3,10.2-42.6,10.6-65c0.9-48.8,0.2-97.8,0.2-146.6C418.4,296.6,420.3,273.8,414.8,252.8z
		 M237.5,143.4c8.7-0.8,17.4-1.3,26.1-1.8c12-0.8,24.2-1.3,36.3-1.1c14.2,0.2,28.5,0.5,42.7,1.4c7.8,0.5,15.7,0.8,23.5,1.7
		c0.1,0,0.1,0,0.2,0c-4.7,0.7-9.4,1.4-14.1,1.8c-19.1,1.9-37.8,0.5-56.9,0.6c-16.7,0.1-33.4,0.2-50.1,0.4
		c-7.9,0.1-21.7,1.6-31.5-0.6C221,143.6,234.1,143.7,237.5,143.4z M200.2,146.9c2.7,11.1,22.8,8.5,31.5,8.8
		c20.2,0.8,40.7,0.5,60.9,0.1c22.3-0.5,44.4,0.8,66.6-1.9c8.4-1,16.7-2.4,24.9-4.3c1.7-0.4,3.3-0.8,5-1.2c0.7,0.9,1.3,1.8,1.6,3
		c0.1,0.3,0.1,0.6,0.2,1c-16.4,8-39.5,8.5-57.3,9.8c-16.8,1.2-33.6,2.6-50.5,2.7c-16.2,0.1-32.5,0.8-48.6-0.5
		c-11.1-0.9-23.3-2.3-34.7-1.7c0-2.6-0.1-5.2-0.1-7.9c0-2.2,0.3-5.1,0-7.6C199.9,147.1,200,147,200.2,146.9z M349.1,179.9
		c7.5-1,15-2,22.5-3.2c0.3-0.1,0.7-0.1,1.1-0.2c-14.4,7.1-28.6,14.6-42.6,22.4c0,0-0.1,0.1-0.1,0.1c-6.3,0.1-12.6,0.1-18.9,0.3
		C323.5,192.5,336.2,186,349.1,179.9z M291.4,198.9c-0.3,0.2-0.6,0.4-0.9,0.6c-2.1,0-4.2,0-6.3,0c-15.2,0-30.3-0.2-45.5-1
		c-12.9-0.6-25.1-3.1-37.7-5.3c-0.1-4.1-0.3-8-0.6-11.7c6.5,0.5,13.5-0.2,18.1,0c27.6,1.2,54.7,2.6,82.3,2.1
		c6.9-0.1,13.9-0.5,20.8-1C311.6,187.9,301.4,193.3,291.4,198.9z M389.9,178.7c0,4.2,0,8.4,0.1,12.7c-6,1.4-12,3.8-18.1,4.9
		c-6.8,1.2-14,1.8-21.1,2.2C363.7,191.6,376.8,185.1,389.9,178.7z M408.4,315.8c-0.1,15-0.1,30-0.2,45c-0.2,36,0,72.1-0.5,108.1
		c-0.4,29.4-6.1,76.1-33.9,93.1c-25.1,15.3-60.2,11.6-88.2,11c-28.3-0.7-66.8-1.1-87-24.5c-11.7-13.6-15-35.9-16.8-53
		c-1.9-17.8-1.3-35.8-1.3-53.7c0-36.1,0.2-72.1-0.1-108.2c-0.3-33.6,0-68.1,11.4-99.9c1.9-3.5,3.6-7,4.6-11.2
		c0.3-0.6,0.5-1.2,0.8-1.9c0.8-1.7,1.4-3.4,1.9-5.3c3,0.4,5.9,0.7,8.5,1.1c31.9,4.7,64.3,7.1,96.5,6.7c28.3-0.4,58.5-1.5,86.1-8.5
		c0.3-0.1,0.6-0.1,0.9-0.2c0.1,0.8,0.2,1.6,0.3,2.4c0,0.1,0,0.2,0,0.2c1.2,12.2,7.2,19.6,11.5,30.7C410,269.8,408.5,293,408.4,315.8
		z"/>
	<path class="st0" d="M358.7,509c-6.4-1.1-15.9-3.5-22.3-1c-3.2,1.2-4.2,6.8,0,7.5c5.1,0.9,32.9,2.8,41.7,9.8
		c1.6,1.6,2.4,3.4,2.2,5.4c-10,8.2-24.6,9.9-37.1,11.7c-15.4,2.2-31.1,2.8-46.7,2.6c-25.7-0.4-50.6-5.6-76-7.2
		c-3.6-0.2-4.8,4.3-2.8,6.7c4.9,5.8,18.4,5.5,25.3,6.5c12.4,1.8,25,2.7,37.5,3.1c28.1,0.9,57,1.3,84.4-5.8c11.4-3,36-13.2,21.3-27.7
		C379.4,513.6,367.8,510.5,358.7,509z"/>
	<path class="st0" d="M377.2,233c-2.4-0.3-4.6,2.7-3.8,4.9c1.1,2.6,2,3.2,3.7,5.6c5.2,7.7,6.5,14,8.1,22.9c1.5,8.2,2.4,15.7,3.1,24
		c1.2,14.2-1.3,29,0.4,43.1c0.2,1.7,1.1,3.3,2.9,3.8c0.3,0.1,0.6,0.2,0.9,0.3c2.1,0.6,3.7-0.5,4.4-2c0.3-0.5,0.5-1.1,0.6-1.8
		c1.7-21.2,2.1-44.8-1.6-65.9C394.1,258,390.3,234.5,377.2,233z"/>
	<path class="st0" d="M298.9,462.2c-8.5,0-15.4,6.6-15.4,15.1c0,7.8,6.9,14.7,15.4,14.7c8.5,0,15.1-6.9,15.1-14.7
		C313.9,468.8,307.3,462.2,298.9,462.2z"/>
	<path class="st0" d="M270,373.8c10,0,17.6-9.1,17.6-14.1c0-1.6-0.9-2.8-2.8-2.8c-0.6,0-1.6,0.6-2.8,0.6c-6.3,0-11-17.3-11-30.7
		c0-28.5,15.1-38.6,29.8-38.6c9.4,0,29.8,4.4,29.8,44.2c0,43.9-25.7,65.2-36.4,74.3c-4.4,4.1-6.3,7.5-6.9,14.4
		c-0.3,4.1,0.3,11,0.3,16c0,12.2,24.4,18.5,24.4,4.4v-12.2c0-4.4-0.3-8.8,3.2-12.2c18.2-17.6,39.5-40.5,39.5-84.4
		c0-39.2-19.9-67.1-53.8-67.1c-27,0-53.7,18.8-53.7,61.2C247.2,347.4,256.5,373.8,270,373.8z"/>
	<path class="st0" d="M114,462.3c4.1-0.4,9.4-0.6,13.1-3.2c2-1.4,1.4-6.5-0.8-7.5c-3.1-1.4-5.9,0.3-8.8,1c-4,1-8.2,1-12.3,1.2
		c-6.1,0.2-12.2,1.6-18.2,2.5c-11,1.7-23,1.9-33.6,6.1c-0.7,0.3-1.2,1.7-1.2,2.9c0,0.3,0,0.6,0,0.9c0,0.8,0.1,1.4,0.3,2
		c0.4,1.5,1.2,2.8,2.3,2.7c13.8-1.4,27.5-4.6,41.3-6C102,464.2,107.9,462.8,114,462.3z"/>
	<path class="st0" d="M62.2,321c12.2,6.7,25.2,12,37.3,18.8c5.3,3,10.9,5.2,16.2,8.2c3.6,2.1,8,4.9,12.6,4.8c2.4,0,4.9-4.5,3.7-6.6
		c-1.7-2.9-5-3.2-7.8-4.3c-3.9-1.5-7.3-3.9-10.8-6.1c-5.1-3.3-10.9-5.7-16.4-8.4c-10-4.9-19.9-11.6-31-14.3
		c-0.7-0.2-1.9,0.7-2.7,1.6c-0.2,0.3-0.4,0.5-0.6,0.8c-0.5,0.8-0.9,1.5-1.1,2.2C61.2,319.2,61.3,320.5,62.2,321z"/>
	<path class="st0" d="M137.9,541.6c-4.5,0.4-8.7,3.7-12,6.1c-4.9,3.6-10.3,6.3-15.3,9.9c-11.3,8-23.8,14.5-35.2,22.5
		c-0.9,0.6-0.8,1.9-0.2,3.2c0.3,0.7,0.7,1.4,1.3,2.1c0.2,0.2,0.4,0.5,0.6,0.7c0.8,0.9,2.1,1.6,2.8,1.4c10.8-3.8,20-11.4,29.4-17.3
		c5.2-3.2,10.7-6.2,15.4-10c3.2-2.6,6.4-5.3,10.1-7.2c2.7-1.4,5.9-2,7.3-5C143.2,545.6,140.3,541.3,137.9,541.6z"/>
	<path class="st0" d="M509.8,101.6c0.5-0.5,0.3-2-0.2-3.1c-0.1-0.3-0.3-0.6-0.4-0.8c-0.3-0.7-0.7-1.2-1.2-1.6c-1-1.2-2.3-2-3.3-1.3
		c-11.6,7.7-22.2,16.8-33.9,24.4c-5.1,3.3-9.7,7.3-14.8,10.5c-3.5,2.2-8,4.9-10.1,8.9c-1.1,2.1,1.8,6.4,4.2,6.3
		c3.4-0.2,5.1-3,7.4-4.9c3.1-2.7,6.8-4.7,10.4-6.7c5.3-3,10.1-7,15-10.6C491.8,115.9,502.3,110.2,509.8,101.6z"/>
	<path class="st0" d="M546.9,216.6c-13.6-2.9-27.6-4-41.2-7c-5.9-1.3-12-1.8-17.9-3.1c-4.1-0.9-9.1-2.3-13.5-0.9
		c-2.3,0.7-3.3,5.8-1.6,7.4c2.5,2.3,5.7,1.6,8.7,1.8c4.1,0.3,8.1,1.6,12.1,2.7c5.9,1.7,12.1,2.3,18.1,3.2c11,1.8,22.4,5.3,33.8,4.5
		c0.7,0,1.7-1.2,2.1-2.4c0.1-0.3,0.2-0.6,0.3-0.9c0.2-0.7,0.3-1.4,0.4-2C548.4,218.3,548,216.9,546.9,216.6z"/>
	<path class="st0" d="M393.2,86.3c3.1-3.4,3.9-8.6,4.7-12.6c1.2-6,3.3-11.6,4.5-17.6c2.9-13.6,7.6-26.8,10.6-40.4
		c0.3-1.1-0.9-2.1-2.4-2.6c-0.6-0.2-1.2-0.4-1.9-0.5c-0.3,0-0.6-0.1-0.9-0.1c-1.2-0.1-2.6,0.3-3,0.9c-5.4,10.1-6.9,21.9-9.9,32.7
		c-1.6,5.9-3.6,11.8-4.6,17.8c-0.6,4.1-1.1,8.2-2.6,12.1c-1,2.8-3,5.5-2,8.7C386.5,87,391.6,88.1,393.2,86.3z"/>
</g>
</svg>
