<?xml version="1.0" encoding="utf-8"?>
<!-- Generator: Adobe Illustrator 19.1.0, SVG Export Plug-In . SVG Version: 6.00 Build 0)  -->
<svg version="1.1" id="Layer_1" xmlns="http://www.w3.org/2000/svg" xmlns:xlink="http://www.w3.org/1999/xlink" x="0px" y="0px"
	 viewBox="0 0 600 600" style="enable-background:new 0 0 600 600;" xml:space="preserve">
<style type="text/css">
	.st0{fill:#607E89;}
</style>
<path class="st0" d="M305.1,84.4C180.2,84.4,79,185.6,79,310.5c0,124.9,101.2,226.1,226.1,226.1s226.1-101.2,226.1-226.1
	C531.2,185.6,429.9,84.4,305.1,84.4z M306,168.7c14,0,24.4,10.4,24.4,24.4c0,13.2-10.4,24.4-24.4,24.4c-13.2,0-24-11.2-24-24.4
	C282,179.1,292.8,168.7,306,168.7z M375.5,358.4c-7.2,26.4-27.2,62.3-61.5,62.3c-21.2,0-37.9-17.2-37.9-37.5V276.5
	c0-7.6,2.8-10,2.8-12.8c0-4,5.4-6.8,11-6.8c13.2,0,22.2,8,22.2,17.6V376c0,3.6,1.6,18.4,12,18.4c16,0,24-25.6,27.5-43.1
	C356.3,326.8,378.6,345.6,375.5,358.4z"/>
</svg>
