<?xml version="1.0" encoding="utf-8"?>
<!-- Generator: Adobe Illustrator 17.0.0, SVG Export Plug-In . SVG Version: 6.00 Build 0)  -->
<!DOCTYPE svg PUBLIC "-//W3C//DTD SVG 1.1//EN" "http://www.w3.org/Graphics/SVG/1.1/DTD/svg11.dtd">
<svg version="1.1" id="Layer_1" xmlns:sketch="http://www.bohemiancoding.com/sketch/ns"
	 xmlns="http://www.w3.org/2000/svg" xmlns:xlink="http://www.w3.org/1999/xlink" x="0px" y="0px" width="32px" height="32px"
	 viewBox="0 0 60 60" style="enable-background:new 0 0 60 60;" xml:space="preserve">
<style type="text/css">
	.st0{fill:#BADBAC;}
</style>
<g>
	<g>
		<path class="st0" d="M30,0C13.4,0,0,13.4,0,30s13.4,30,30,30s30-13.4,30-30S46.6,0,30,0z M39.4,32.2L28.5,42.8
			c-0.9,0.9-2.4,0.8-3.3-0.1l-0.2-0.2c-0.9-0.9-1-2.3-0.1-3.2l8.9-8.8L25.2,22c-0.9-0.9-0.9-2.4,0-3.3l0.2-0.2
			c0.9-0.9,2.4-0.9,3.3,0l10.4,10.2c0,0,0,0,0,0l0.2,0.2C40.2,29.9,40.2,31.3,39.4,32.2z"/>
	</g>
</g>
</svg>
