<?xml version="1.0" encoding="utf-8"?>
<!-- Generator: Adobe Illustrator 17.0.0, SVG Export Plug-In . SVG Version: 6.00 Build 0)  -->
<!DOCTYPE svg PUBLIC "-//W3C//DTD SVG 1.1//EN" "http://www.w3.org/Graphics/SVG/1.1/DTD/svg11.dtd">
<svg version="1.1" id="Layer_1" xmlns:sketch="http://www.bohemiancoding.com/sketch/ns"
	 xmlns="http://www.w3.org/2000/svg" xmlns:xlink="http://www.w3.org/1999/xlink" x="0px" y="0px" width="182px" height="130px"
	 viewBox="0 0 182 130" style="enable-background:new 0 0 182 130;" xml:space="preserve">
<style type="text/css">
	.st0{fill:#FFFFFF;}
	.st1{fill:#9BAFB8;}
</style>
<title>Rectangle 172 + Fill 1 Copy + Fill 1 Copy 2 Copy</title>
<desc>Created with Sketch.</desc>
<g id="Page-1" sketch:type="MSPage">
	<g id="Artboard-17" transform="translate(-572.000000, -416.000000)" sketch:type="MSArtboardGroup">
		
			<g id="Rectangle-172-_x2B_-Fill-1-Copy-_x2B_-Fill-1-Copy-2-Copy" transform="translate(572.000000, 416.000000)" sketch:type="MSLayerGroup">
			<g id="Rectangle-172" sketch:type="MSShapeGroup">
				<rect class="st0" width="182" height="130"/>
			</g>
			<g>
				<g>
					<path class="st1" d="M114.3,87.1h-5.2l-5.4-7.9c5.1-5,8.4-12.4,8.9-19.6c2.1-0.8,3.5-3,3.5-5.9v-8.4c0-1.9,0-5.3-4.2-6.1v-6.5
						c0-11.4-5.9-17.7-16.7-17.7c-6.8,0-13.4,2.5-15.1,3.1c-7.9,0.2-14.2,6.7-14.2,14.6v7.1c-1.7,1-4.2,2.8-4.2,5.5v8.4
						c0,2.9,2.5,5.2,5.3,6c0.6,7.4,4.8,15.5,10.8,20.5l-4.7,7H68c-13.3-0.1-23,8.7-23,20.8v4.2c0,1.2,0.9,2.1,2.1,2.1
						c1.2,0,2.1-0.9,2.1-2.1V108c0-9.8,7.7-16.7,18.8-16.7h4.9l7.8,17.6c0.3,0.6,0.9,1.1,1.5,1.2h0.4c0.5,0,1.1-0.2,1.5-0.6l6.9-6.9
						l6.9,6.9c0.4,0.4,0.9,0.6,1.5,0.6h0.4c0.7-0.1,1.3-0.6,1.5-1.2l7.8-17.6h5.3c10.9,0,18.5,6.9,18.5,16.7v4.2
						c0,1.2,0.9,2.1,2.1,2.1s2.1-0.9,2.1-2.1V108C137,95.8,127.7,87.1,114.3,87.1z M71.1,57.9c0-1.2-0.9-2.1-2.1-2.1
						c-1.4,0-3.1-1.2-3.1-2.1v-8.3c0.1-0.5,1.5-1.6,3-2.3c0.7-0.3,1.2-1.1,1.2-1.9v-8.4c0-5.8,4.7-10.5,10.5-10.5
						c0.3,0,0.6-0.1,0.8-0.2c0.1,0,7-3,13.8-3c8.4,0,12.5,4.4,12.5,13.6v8.4c0,1.2,0.9,2.1,2.1,2.1c2.1,0,2.1,0,2.1,2.1v8.4
						c0,1.4-0.4,2.1-1.3,2.1c-1.2,0-2.1,0.9-2.1,2.1c0,10.6-7.9,23-18,23C80.1,80.9,71.1,68.2,71.1,57.9z M83.3,104.4L79,94.6
						l8.7,5.4L83.3,104.4z M98.7,104.4l-4.4-4.4l8.7-5.4L98.7,104.4z M91,97.2l-13.8-8.6l4.1-6.1c2.8,1.6,5.9,2.5,9.2,2.5
						c3.6,0,7-1.2,10-3.2l4.5,6.6L91,97.2z"/>
				</g>
			</g>
		</g>
	</g>
</g>
</svg>
