<?xml version="1.0" encoding="UTF-8" standalone="no"?>
<svg width="131px" height="32px" viewBox="0 0 131 32" version="1.1" xmlns="http://www.w3.org/2000/svg" xmlns:xlink="http://www.w3.org/1999/xlink" xmlns:sketch="http://www.bohemiancoding.com/sketch/ns">
    <!-- Generator: Sketch 3.4.3 (16044) - http://www.bohemiancoding.com/sketch -->
    <title>Group 49 Copy 2</title>
    <desc>Created with Sketch.</desc>
    <defs></defs>
    <g id="Page-1" stroke="none" stroke-width="1" fill="none" fill-rule="evenodd" sketch:type="MSPage">
        <g id="01-Landing" sketch:type="MSArtboardGroup" transform="translate(-21.000000, -13.000000)" fill="#0B9384">
            <g id="Group-49-Copy-2" sketch:type="MSLayerGroup" transform="translate(20.700000, 13.500000)">
                <path d="M8.78795003,20.5313692 C7.18786871,21.0388212 6.29085343,21.9329034 6.29085343,23.1411226 C6.29085343,23.8660541 6.67875193,24.1801911 7.16362506,24.1801911 C8.25458959,24.1801911 8.66673175,22.4645199 8.78795003,20.5313692 M5.05392187,18.4532322 C2.04770848,18.4532322 0.350147462,15.4563452 0.350147462,10.9371021 C0.350147462,6.12838973 3.4295969,0.231776712 8.25458959,0.231776712 C10.0001329,0.231776712 11.333534,1.36750274 11.333534,3.22816027 C11.333534,5.86258151 8.40005153,8.10986918 6.29085343,8.10986918 C5.7085006,8.10986918 5.22362747,7.74740342 5.22362747,6.94997877 C5.22362747,6.6116774 5.32060209,6.08006096 5.49030769,6.08006096 C5.66051836,6.08006096 5.7085006,6.32170479 6.41156663,6.32170479 C7.64849818,6.32170479 9.4182851,4.89600616 9.4182851,3.34898219 C9.4182851,2.79320137 9.05463025,1.99577671 7.93942206,1.99577671 C4.90845994,1.99577671 2.36287602,6.68417055 2.36287602,10.9134411 C2.36287602,14.3931123 3.55081518,16.5679068 5.10240919,16.5679068 C7.57576721,16.5679068 8.83643735,13.2332219 8.83643735,11.2517425 C8.83643735,11.0095952 8.78795003,10.6229651 8.78795003,10.4538144 C8.78795003,9.9946911 9.15160488,9.97052671 9.56374704,9.97052671 C10.0001329,9.97052671 10.8244172,10.3571568 10.8244172,10.8887733 C10.7031989,12.1941534 10.6789552,13.3298795 10.6789552,14.5380986 C10.6789552,15.6738247 10.7031989,16.8578795 10.7031989,18.3319068 C11.1638284,18.2599171 11.6002142,18.2357527 11.9881127,18.2115884 C13.1280696,18.1385918 12.5219782,20.0964103 11.6729451,20.1205747 C11.3092903,20.1205747 10.9941228,20.144739 10.6547116,20.1689034 C10.5334933,22.8753144 9.95164554,26.0408486 7.11513774,26.0408486 C5.46606403,26.0408486 4.39934315,24.8089685 4.39934315,23.1894514 C4.39934315,20.7246842 6.60602096,19.4198075 8.860681,18.7432048 L8.860681,18.501561 C8.860681,17.461989 8.81219369,16.6645644 8.81219369,16.0846192 C7.79396012,17.5833144 6.53328999,18.4532322 5.05392187,18.4532322" id="Fill-31" sketch:type="MSShapeGroup"></path>
                <path d="M15.3824266,15.4081171 C15.3824266,13.8615966 15.8188124,12.1454219 16.5946094,10.0672849 L14.7520915,10.0672849 L14.4854113,10.0672849 C14.4611677,11.0096959 14.3157057,13.1125007 13.8793199,14.5140349 C13.5641524,15.528939 12.3034822,14.6590212 12.5216751,13.8374322 C12.7883554,12.8703534 12.88533,10.8647096 12.9095736,9.63232603 C12.3034822,9.29402466 11.8670964,8.7865726 11.8670964,8.08580548 C11.8670964,7.40920274 12.4489442,6.97424384 13.0792792,6.97424384 C13.661127,6.97424384 14.3399494,7.26421644 14.6066296,8.25495616 C15.4066703,8.3516137 15.6491068,8.3516137 15.8915434,8.3516137 L17.1522135,8.3516137 C17.4436425,8.3516137 18.4133887,9.14903836 18.3164141,9.70481918 C18.3164141,9.99479178 17.2249445,12.846189 17.2249445,15.2631308 C17.2249445,15.9397336 17.540112,16.5680075 18.1951958,16.5680075 C19.310404,16.5680075 19.7225462,15.021487 19.9407391,13.9582541 C20.0377137,13.4508021 20.2801503,13.2328192 20.5225868,13.2328192 C20.9104853,13.2328192 21.3711148,13.764939 21.3711148,14.2240623 C21.3711148,14.2965555 21.3468711,14.3448842 21.3468711,14.393213 C20.9104853,15.9880623 19.9649827,18.1628568 17.8800283,18.1628568 C16.7400714,18.1628568 15.3824266,17.5345829 15.3824266,15.4081171" id="Fill-32" sketch:type="MSShapeGroup"></path>
                <path d="M21.7346686,13.7406236 C22.9468514,13.1848428 23.7226485,11.9282949 23.7226485,10.4784318 C23.7226485,9.94631199 23.5286992,9.632175 23.2135317,9.632175 C22.0255925,9.632175 21.6619377,12.2907606 21.710425,13.3056647 C21.710425,13.450651 21.7346686,13.5956373 21.7346686,13.7406236 M22.0255925,15.0696647 C22.3650037,15.8912538 23.0195824,16.5678565 24.2807576,16.5678565 C26.1717628,16.5678565 26.9475598,14.9971716 27.2384837,13.5231442 C27.4566766,12.4357469 28.8143214,12.9190346 28.7173467,13.764788 C28.5476411,15.2388154 27.5778949,18.1632092 24.0135723,18.1632092 C21.8073996,18.1632092 19.7224451,16.3987058 19.7224451,13.3781579 C19.7224451,10.3092812 21.564963,8.0131613 23.4317246,8.0131613 C24.7898744,8.0131613 25.6136536,9.00390103 25.6136536,10.4542675 C25.6136536,12.2424318 24.3772272,14.3688976 22.0255925,15.0696647" id="Fill-33" sketch:type="MSShapeGroup"></path>
                <path d="M28.9354386,13.7406236 C30.1476215,13.1848428 30.9239235,11.9282949 30.9239235,10.4784318 C30.9239235,9.94631199 30.7294692,9.632175 30.4148067,9.632175 C29.2263625,9.632175 28.8627077,12.2907606 28.911195,13.3056647 C28.911195,13.450651 28.9354386,13.5956373 28.9354386,13.7406236 M29.2263625,15.0696647 C29.5657737,15.8912538 30.2203524,16.5678565 31.4815276,16.5678565 C33.3725328,16.5678565 34.1483298,14.9971716 34.4392537,13.5231442 C34.6574466,12.4357469 36.0150914,12.9190346 35.9181167,13.764788 C35.7484111,15.2388154 34.7786649,18.1632092 31.2148474,18.1632092 C29.0081696,18.1632092 26.9232152,16.3987058 26.9232152,13.3781579 C26.9232152,10.3092812 28.765733,8.0131613 30.6329997,8.0131613 C31.9906444,8.0131613 32.8149287,9.00390103 32.8149287,10.4542675 C32.8149287,12.2424318 31.5779972,14.3688976 29.2263625,15.0696647" id="Fill-34" sketch:type="MSShapeGroup"></path>
                <path d="M34.4394052,9.43901096 C34.4394052,8.97988767 34.3424306,8.83490137 34.3424306,8.66575068 C34.3424306,8.42410685 34.6333545,8.25495616 34.9727657,8.25495616 C35.7728063,8.25495616 36.2819231,8.73824384 36.2819231,9.31818904 L36.2819231,10.4055863 C36.9365018,9.05238082 37.8092735,8.01331233 38.9972126,8.01331233 C40.6220427,8.01331233 41.0099412,9.34235342 41.0099412,10.4539151 L41.0099412,15.4564459 C41.0099412,15.6739253 41.0099412,16.5680075 41.6402762,16.5680075 C42.6100225,16.5680075 43.0464083,15.021487 43.2646012,13.9582541 C43.3615758,13.4508021 43.6040124,13.2328192 43.846449,13.2328192 C44.2343475,13.2328192 44.694977,13.764939 44.694977,14.2240623 C44.694977,14.2482267 44.694977,14.2965555 44.6712384,14.393213 C44.2585911,15.9880623 43.2888449,18.1628568 41.2038904,18.1628568 C39.9189766,18.1628568 39.1669182,17.1237884 39.1669182,15.8914048 L39.1669182,10.9855315 C39.1669182,10.2364356 39.1184309,9.60816164 38.6578014,9.60816164 C37.9552405,9.60816164 36.4516287,11.6862986 36.2819231,13.5957884 L36.2819231,17.1237884 C36.2819231,17.5829116 36.3061668,18.1628568 35.6031007,18.1628568 C35.1182276,18.1628568 34.4394052,17.9937062 34.4394052,17.099624 L34.4394052,9.43901096 Z" id="Fill-35" sketch:type="MSShapeGroup"></path>
                <path d="M48.5017866,14.2239113 C48.5987612,13.6681305 48.6230049,13.0881853 48.6230049,12.629062 C48.6230049,11.0095449 48.2108627,10.0912983 47.7744769,10.0912983 C47.4593094,10.0912983 47.3380911,10.5504216 47.3380911,11.2275277 C47.3380911,12.3874182 47.7987206,13.4748154 48.5017866,14.2239113 M47.8956952,8.49644897 C49.180609,8.49644897 50.4655228,9.72883253 50.4655228,12.4357469 C50.4655228,13.3781579 50.3443045,14.3447332 50.1018679,15.1904866 C50.2715735,15.2388154 50.4412791,15.2388154 50.6109847,15.2388154 C51.6534619,15.2388154 52.211066,14.4413908 52.357033,13.4989798 C52.4540077,12.943199 54.054089,12.8465414 53.7389214,14.1997469 C53.4479976,15.5046236 52.4540077,16.5920209 50.8049339,16.5920209 C50.3685481,16.5920209 49.956406,16.5436921 49.5685075,16.4228702 C48.9624161,17.4624421 48.0169135,18.1632092 46.6107814,18.1632092 C44.3798599,18.1632092 43.1919208,16.4953634 43.1919208,14.1272538 L43.1919208,2.59983596 C43.1919208,1.89906884 42.9494842,1.85074007 42.9494842,1.68158938 C42.9494842,1.5124387 43.38587,1.41578116 43.7252812,1.41578116 C44.5253219,1.41578116 45.0344386,1.89906884 45.0344386,2.47901404 L45.0344386,13.7889524 C45.0344386,15.3838017 45.5920427,16.5678565 46.7562433,16.5678565 C47.3623347,16.5678565 47.7744769,16.2295551 48.0654008,15.7221031 C46.6830073,14.7313634 45.8344793,13.0398565 45.8344793,11.3236818 C45.8344793,9.36636678 46.7562433,8.49644897 47.8956952,8.49644897" id="Fill-36" sketch:type="MSShapeGroup"></path>
                <path d="M54.0539374,13.7406236 C55.2661203,13.1848428 56.0419173,11.9282949 56.0419173,10.4784318 C56.0419173,9.94631199 55.847968,9.632175 55.5328005,9.632175 C54.3448613,9.632175 53.9812065,12.2907606 54.0296938,13.3056647 C54.0296938,13.450651 54.0539374,13.5956373 54.0539374,13.7406236 M54.3448613,15.0696647 C54.6842725,15.8912538 55.3388512,16.5678565 56.5995214,16.5678565 C58.4910316,16.5678565 59.2668286,14.9971716 59.5577525,13.5231442 C59.7759454,12.4357469 61.1335902,12.9190346 61.0366156,13.764788 C60.86691,15.2388154 59.8971637,18.1632092 56.3328411,18.1632092 C54.1266684,18.1632092 52.041714,16.3987058 52.041714,13.3781579 C52.041714,10.3092812 53.8842319,8.0131613 55.7509934,8.0131613 C57.1091432,8.0131613 57.9329225,9.00390103 57.9329225,10.4542675 C57.9329225,12.2424318 56.696496,14.3688976 54.3448613,15.0696647" id="Fill-37" sketch:type="MSShapeGroup"></path>
                <path d="M61.4003209,10.3331435 C61.9094377,9.31823938 62.4185545,6.12803733 62.4185545,4.79899623 C62.4185545,3.20414692 62.1518743,2.47921541 61.7639758,2.47921541 C61.4972955,2.47921541 61.4003209,3.05916062 61.4003209,3.44579075 L61.4003209,10.3331435 Z M66.2495573,14.4174277 C65.8131714,15.7223045 64.6252323,18.1629072 62.4185545,18.1629072 C60.5517929,18.1629072 59.557803,16.8821949 59.557803,14.9732086 L59.557803,3.97740719 C59.557803,2.16507842 60.5517929,0.884366096 61.7639758,0.884366096 C63.8979226,0.884366096 63.9216612,3.42162637 63.9216612,4.77483185 C63.9216612,8.32749966 61.7154884,13.2087051 61.4003209,13.4986777 L61.4003209,14.9007154 C61.4003209,15.8672908 61.7882194,16.5680579 62.6852347,16.5680579 C63.8004429,16.5680579 64.6252323,15.0457017 64.8429201,13.9819654 C65.1343491,12.5562668 66.4435065,13.643664 66.2495573,14.4174277 L66.2495573,14.4174277 Z" id="Fill-38" sketch:type="MSShapeGroup"></path>
                <path d="M64.8913569,6.20068151 L64.8913569,2.11639726 C64.8913569,1.41563014 64.6489204,1.36730137 64.6489204,1.19815068 C64.6489204,1.029 65.0853062,0.932342466 65.4247174,0.932342466 C66.224758,0.932342466 66.7338748,1.41563014 66.7338748,1.99557534 L66.7338748,6.22484589 C68.2127378,6.22484589 69.9102989,6.20068151 71.5588675,6.12818836 C72.2376899,5.40325685 72.019497,7.72303767 71.3891619,7.74720205 C69.4496694,7.79553082 68.0192937,7.79553082 66.7338748,7.79553082 L66.7338748,15.4566473 C66.7338748,16.2299075 67.0495474,16.5682089 67.5586642,16.5682089 C68.5284105,16.5682089 68.9647963,15.0211849 69.1829892,13.9579521 C69.2799638,13.4505 69.5224004,13.2330205 69.7648369,13.2330205 C70.1527354,13.2330205 70.6133649,13.764637 70.6133649,14.2237603 C70.6133649,14.2479247 70.6133649,14.2962534 70.5891212,14.392911 C70.1769791,15.9877603 69.2072328,18.1630582 67.1217733,18.1630582 C65.8126159,18.1630582 64.8913569,17.3897979 64.8913569,15.4803082 L64.8913569,7.79553082 C63.824636,7.79553082 63.2185446,7.74720205 63.2185446,7.74720205 C62.4427476,7.74720205 62.0058567,6.12818836 62.7094278,6.12818836 C62.7094278,6.12818836 63.5821995,6.17651712 64.8913569,6.20068151" id="Fill-39" sketch:type="MSShapeGroup"></path>
                <path d="M83.0269756,20.5313692 C81.4268943,21.0388212 80.5293739,21.9329034 80.5293739,23.1411226 C80.5293739,23.8660541 80.9177775,24.1801911 81.4026506,24.1801911 C82.4936152,24.1801911 82.9057573,22.4645199 83.0269756,20.5313692 M79.2929474,18.4532322 C76.286734,18.4532322 74.5896781,15.4563452 74.5896781,10.9371021 C74.5896781,6.12838973 77.6686225,0.231776712 82.4936152,0.231776712 C84.2391584,0.231776712 85.5730646,1.36750274 85.5730646,3.22816027 C85.5730646,5.86258151 82.6390771,8.10986918 80.5293739,8.10986918 C79.9475262,8.10986918 79.462653,7.74740342 79.462653,6.94997877 C79.462653,6.6116774 79.5596277,6.08006096 79.7293333,6.08006096 C79.8990388,6.08006096 79.9475262,6.32170479 80.6505922,6.32170479 C81.8875237,6.32170479 83.6573107,4.89600616 83.6573107,3.34898219 C83.6573107,2.79320137 83.2936558,1.99577671 82.1784476,1.99577671 C79.1474855,1.99577671 76.6019016,6.68417055 76.6019016,10.9134411 C76.6019016,14.3931123 77.7898407,16.5679068 79.3414348,16.5679068 C81.8147928,16.5679068 83.0754629,13.2332219 83.0754629,11.2517425 C83.0754629,11.0095952 83.0269756,10.6229651 83.0269756,10.4538144 C83.0269756,9.9946911 83.3906304,9.97052671 83.8027726,9.97052671 C84.2391584,9.97052671 85.0634427,10.3571568 85.0634427,10.8887733 C84.9422245,12.1941534 84.9179808,13.3298795 84.9179808,14.5380986 C84.9179808,15.6738247 84.9422245,16.8578795 84.9422245,18.3319068 C85.403359,18.2599171 85.8392397,18.2357527 86.2271382,18.2115884 C87.3665901,18.1385918 86.7610038,20.0964103 85.9124758,20.1205747 C85.5483159,20.1205747 85.2331483,20.144739 84.8937371,20.1689034 C84.7725189,22.8753144 84.1906711,26.0408486 81.3541633,26.0408486 C79.7055947,26.0408486 78.6383687,24.8089685 78.6383687,23.1894514 C78.6383687,20.7246842 80.8450465,19.4198075 83.0997066,18.7432048 L83.0997066,18.501561 C83.0997066,17.461989 83.0512193,16.6645644 83.0512193,16.0846192 C82.0329857,17.5833144 80.7723156,18.4532322 79.2929474,18.4532322" id="Fill-40" sketch:type="MSShapeGroup"></path>
                <path d="M89.6214522,15.4081171 C89.6214522,13.8615966 90.057838,12.1454219 90.833635,10.0672849 L88.9911171,10.0672849 L88.7244369,10.0672849 C88.7001932,11.0096959 88.5547313,13.1125007 88.1183455,14.5140349 C87.8026729,15.528939 86.5420027,14.6590212 86.7601956,13.8374322 C87.0273809,12.8703534 87.1238505,10.8647096 87.1485992,9.63232603 C86.5420027,9.29402466 86.1056169,8.7865726 86.1056169,8.08580548 C86.1056169,7.40920274 86.6874647,6.97424384 87.3183048,6.97424384 C87.9001526,6.97424384 88.5789749,7.26421644 88.8456552,8.25495616 C89.6456958,8.3516137 89.8881324,8.3516137 90.1305689,8.3516137 L91.3912391,8.3516137 C91.682163,8.3516137 92.6519092,9.14903836 92.5549346,9.70481918 C92.5549346,9.99479178 91.46397,12.846189 91.46397,15.2631308 C91.46397,15.9397336 91.7791376,16.5680075 92.4337163,16.5680075 C93.5489245,16.5680075 93.9610667,15.021487 94.1792596,13.9582541 C94.2767393,13.4508021 94.5191758,13.2328192 94.7616124,13.2328192 C95.1495109,13.2328192 95.6101404,13.764939 95.6101404,14.2240623 C95.6101404,14.2965555 95.5858967,14.3448842 95.5858967,14.393213 C95.1495109,15.9880623 94.2040083,18.1628568 92.1185488,18.1628568 C90.9790969,18.1628568 89.6214522,17.5345829 89.6214522,15.4081171" id="Fill-41" sketch:type="MSShapeGroup"></path>
                <path d="M95.9736942,13.7406236 C97.185877,13.1848428 97.961674,11.9282949 97.961674,10.4784318 C97.961674,9.94631199 97.7677248,9.632175 97.4525572,9.632175 C96.2646181,9.632175 95.9009632,12.2907606 95.9494505,13.3056647 C95.9494505,13.450651 95.9736942,13.5956373 95.9736942,13.7406236 M96.2646181,15.0696647 C96.6040293,15.8912538 97.258608,16.5678565 98.5192781,16.5678565 C100.410788,16.5678565 101.186585,14.9971716 101.477509,13.5231442 C101.695702,12.4357469 103.053347,12.9190346 102.956372,13.764788 C102.786667,15.2388154 101.81692,18.1632092 98.2525979,18.1632092 C96.0464252,18.1632092 93.9614707,16.3987058 93.9614707,13.3781579 C93.9614707,10.3092812 95.8039886,8.0131613 97.6707501,8.0131613 C99.0289,8.0131613 99.8526792,9.00390103 99.8526792,10.4542675 C99.8526792,12.2424318 98.6162527,14.3688976 96.2646181,15.0696647" id="Fill-42" sketch:type="MSShapeGroup"></path>
                <path d="M103.174717,13.7406236 C104.3869,13.1848428 105.162697,11.9282949 105.162697,10.4784318 C105.162697,9.94631199 104.968747,9.632175 104.65358,9.632175 C103.465641,9.632175 103.101986,12.2907606 103.150473,13.3056647 C103.150473,13.450651 103.174717,13.5956373 103.174717,13.7406236 M103.465641,15.0696647 C103.805052,15.8912538 104.459631,16.5678565 105.720301,16.5678565 C107.611811,16.5678565 108.387608,14.9971716 108.678532,13.5231442 C108.896725,12.4357469 110.254369,12.9190346 110.157395,13.764788 C109.987689,15.2388154 109.017943,18.1632092 105.45362,18.1632092 C103.247448,18.1632092 101.162493,16.3987058 101.162493,13.3781579 C101.162493,10.3092812 103.005011,8.0131613 104.871773,8.0131613 C106.229923,8.0131613 107.053702,9.00390103 107.053702,10.4542675 C107.053702,12.2424318 105.817275,14.3688976 103.465641,15.0696647" id="Fill-43" sketch:type="MSShapeGroup"></path>
                <path d="M108.678128,9.43901096 C108.678128,8.97988767 108.581153,8.83490137 108.581153,8.66575068 C108.581153,8.42410685 108.872077,8.25495616 109.211488,8.25495616 C110.011529,8.25495616 110.520646,8.73824384 110.520646,9.31818904 L110.520646,10.4055863 C111.175729,9.05238082 112.048501,8.01331233 113.23644,8.01331233 C114.860765,8.01331233 115.248664,9.34235342 115.248664,10.4539151 L115.248664,15.4564459 C115.248664,15.6739253 115.248664,16.5680075 115.878999,16.5680075 C116.848745,16.5680075 117.285131,15.021487 117.503829,13.9582541 C117.600803,13.4508021 117.84324,13.2328192 118.085677,13.2328192 C118.473575,13.2328192 118.934205,13.764939 118.934205,14.2240623 C118.934205,14.2482267 118.934205,14.2965555 118.909961,14.393213 C118.497314,15.9880623 117.527567,18.1628568 115.442613,18.1628568 C114.157699,18.1628568 113.406146,17.1237884 113.406146,15.8914048 L113.406146,10.9855315 C113.406146,10.2364356 113.357659,9.60816164 112.897029,9.60816164 C112.193963,9.60816164 110.690351,11.6862986 110.520646,13.5957884 L110.520646,17.1237884 C110.520646,17.5829116 110.545394,18.1628568 109.841823,18.1628568 C109.35695,18.1628568 108.678128,17.9937062 108.678128,17.099624 L108.678128,9.43901096 Z" id="Fill-44" sketch:type="MSShapeGroup"></path>
                <path d="M117.406804,13.6921942 C117.64924,12.6289613 118.158357,11.2515914 118.594743,9.97037568 C118.352306,9.60790993 118.206844,9.24544418 118.206844,8.83464966 C118.206844,8.01306062 119.612976,6.92566336 120.267555,6.92566336 C120.849908,6.92566336 121.140832,7.36062226 121.140832,8.01306062 C121.140832,8.71382774 120.582723,9.5112524 120.558479,9.6562387 C121.698436,11.662386 123.177299,12.5323038 123.177299,14.8279202 C123.177299,15.1178928 123.128812,15.4320298 123.056081,15.697838 C124.195533,15.4561942 124.77738,14.7312627 125.044061,13.9580024 C125.213766,13.4988791 125.383472,13.305564 125.601665,13.305564 C126.013807,13.305564 126.474436,13.933838 126.474436,14.2721394 C126.474436,14.7554271 125.916832,15.6736736 125.359228,16.1327969 C124.607675,16.7374099 123.613685,17.1965332 122.110578,17.2931908 C121.52873,17.8006428 120.728185,18.1631086 119.734195,18.1631086 C118.715961,18.1631086 117.552266,17.6073277 117.067392,17.1482045 C115.878948,16.011975 116.534032,14.7312627 117.067392,14.7312627 C117.552266,14.7312627 119.758438,16.1327969 120.971126,16.1327969 C121.237301,15.8186599 121.503982,15.2628791 121.503982,14.6587695 C121.503982,13.1364134 120.606966,12.1215092 119.758438,11.2515914 C119.37054,12.1940024 119.128103,13.0155914 118.812936,14.1754818 C118.546256,15.190386 117.212854,14.5137832 117.406804,13.6921942" id="Fill-45" sketch:type="MSShapeGroup"></path>
                <path d="M73.0026783,21.8032716 C73.2158204,21.8032716 73.3708788,21.783638 73.4673483,21.7443709 C73.5638179,21.7051038 73.6607925,21.6854702 73.7572621,21.6854702 C73.9704042,21.6854702 74.1254626,21.7363161 74.2219321,21.8385113 C74.3189068,21.9412099 74.366889,22.0590113 74.366889,22.1929223 C74.366889,22.3187784 74.3189068,22.4446346 74.2219321,22.5704908 C74.1254626,22.6963469 73.9946479,22.8101209 73.829993,22.9123161 C73.6658433,23.0150147 73.4723991,23.0975764 73.2496605,23.1605045 C73.0269219,23.2234325 72.7799397,23.2546449 72.5092188,23.2546449 L15.8800782,23.2546449 C15.5699614,23.2546449 15.3335857,23.1856757 15.1684258,23.0482408 C15.0042761,22.9103024 14.9219486,22.7512202 14.9219486,22.5704908 C14.9219486,22.3580455 15.0578141,22.1768127 15.328535,22.0272955 C15.5992558,21.8782818 16.0149335,21.8032716 16.5765782,21.8032716 L73.0026783,21.8032716 Z" id="Fill-46" sketch:type="MSShapeGroup"></path>
                <path d="M123.372359,21.8032212 C123.502669,21.8032212 123.597118,21.7835877 123.657222,21.7443205 C123.715811,21.7050534 123.774905,21.6854199 123.834504,21.6854199 C123.964814,21.6854199 124.059768,21.7362658 124.118862,21.838461 C124.177956,21.9411596 124.20725,22.058961 124.20725,22.1928719 C124.20725,22.3187281 124.177956,22.4445842 124.118862,22.5704404 C124.059768,22.6962966 123.979461,22.8100705 123.878446,22.9122658 C123.777936,23.0149644 123.659748,23.097526 123.523882,23.1604541 C123.387007,23.2233822 123.235989,23.2545945 123.070324,23.2545945 L88.4008851,23.2545945 C88.2114815,23.2545945 88.0665247,23.1856253 87.9655094,23.0481904 C87.8655043,22.9107555 87.8144916,22.7511699 87.8144916,22.5704404 C87.8144916,22.3579952 87.8978292,22.1767623 88.0634942,22.0272452 C88.2286541,21.8782315 88.4837176,21.8032212 88.8271694,21.8032212 L123.372359,21.8032212 Z" id="Fill-47" sketch:type="MSShapeGroup"></path>
                <path d="M128.125833,21.4492634 L128.125328,21.4497668 L128.125328,21.4492634 L128.125833,21.4492634 Z M126.905569,17.6720682 C126.207554,18.0878969 125.608534,18.6748901 125.315084,19.4380818 C125.149924,19.8669997 125.05093,20.3195784 124.871628,20.743462 C124.713034,21.1175065 124.484739,21.3521024 124.227655,21.605325 C124.125125,21.5846846 124.020069,21.5806572 123.915518,21.5992839 C123.824605,21.6158969 123.734196,21.6491229 123.644797,21.7019825 C123.489234,21.7946127 123.178107,22.1555682 123.524084,22.2013798 C123.53065,22.2018832 123.536711,22.2028901 123.543782,22.2028901 C124.091285,22.196849 124.444838,22.7984414 124.692325,23.2137668 C124.896376,23.556599 125.036282,23.944236 125.033252,24.3469757 C125.032747,24.4008421 125.029716,24.4562188 125.009008,24.5060579 C124.974158,24.5901298 124.895366,24.6465134 124.82213,24.7008832 C124.297861,25.0890236 123.902386,25.5421058 123.890265,26.222736 C123.877133,26.9290408 124.214018,27.5860099 124.494336,28.2152908 C124.818595,28.9427394 125.126186,29.6802565 125.468628,30.3991469 C125.668133,30.8179962 126.019161,31.2967531 126.548985,31.1301195 C127.04194,30.9755682 127.481356,30.4509997 127.77228,30.0477565 C128.213211,29.4360955 128.506661,28.721736 128.6698,27.9887497 C128.833445,27.2562668 128.954158,26.3928935 128.579392,25.7067257 C128.356148,25.2974414 128.097549,24.8785921 127.724298,24.5891229 C127.247001,24.2201127 126.57727,24.1939346 126.147955,23.7640099 C125.739348,23.3547257 125.530752,22.7893798 125.203463,22.3211949 C125.095376,22.1661401 124.948399,22.006051 124.778693,21.8741538 C124.938298,21.8082051 125.110023,21.7915921 125.295892,21.8731469 C125.426706,21.9310408 125.532267,22.033236 125.634798,22.132914 C126.041384,22.5301161 126.413625,23.075325 126.953552,23.3023695 C127.362158,23.4740373 127.823798,23.4322531 128.244526,23.3315682 C128.719803,23.2177942 129.175887,23.0280031 129.575402,22.7450784 C129.769351,22.6081469 129.933501,22.4420168 130.114823,22.2924997 C130.297661,22.1414723 130.475953,21.9808798 130.613839,21.7860545 C130.834052,21.4754414 130.958806,21.0782394 131.039618,20.710236 C131.144674,20.2329894 131.285085,19.7456743 131.25175,19.2513113 C131.214879,18.6970408 130.899207,18.2580545 130.513833,17.876962 C130.140077,17.5069449 129.673892,17.2275442 129.16629,17.085075 C128.646062,16.9390818 127.969765,17.1610921 127.490447,17.3715236 C127.290942,17.4596229 127.094468,17.559301 126.905569,17.6720682 L126.905569,17.6720682 Z" id="Fill-48" sketch:type="MSShapeGroup"></path>
            </g>
        </g>
    </g>
</svg>